<?xml version="1.0" encoding="UTF-8"?>
<svg version="1.1" viewBox="0 0 1080 1080" width="1280" height="1280" xmlns="http://www.w3.org/2000/svg">
<path transform="translate(0)" d="m0 0h1080v1080h-1080z" fill="#FEFEFE"/>
<path transform="translate(352,152)" d="m0 0h7l9 4 11 7 87 58 10-1 11-3v-5l9-3 22-5h2l5 18 1 10-16 5-8 2 5 4 22 13 15 9 28 17 17 10 1 1 10-1 12-3h3l1-4 24-7 8-1 3 8 4 16v3l-28 8-1 2 5 2 22 13 13 8 17 10 9-3 20-8 34-12 52-17 32-9 9-1h19l27 4 32 8 23 6 7 4 2 3v6l-5 8h-2v2h-2v2h-2v2h-2v2l-17 13-16 10-17 9-23 10-16 6-57 16-29 8-19 13-14 8-9 4-8 12-7 11h-2l-2 5 1 4 1 5-7 10-15 24-12 18-4 7 8-4 29-7h6l7 26-3 3-25 7h-4v-2l-9 1-27 6-14 20-8 12-25 37-6 8-1 3 16-6 17-6h4l8 29-3 3-26 7-4-2-8 1-23 6-4 1-2 6-6 9-7 12-16 26-9 14h-4l-5-1-6 6-36 8h-4l1-5 18-43 15-37 2-4-1-8 3-8h-3l2-4 3-3h2l3-9 7-18 3-9-3-1 2-4 5-4 7-17 5-3v-16l-5-2 1-13-2-1 1-4 2-3h2l2-20-4-2 5-6 3-28 16-4 46-11 24-6-36 8-37 8-16 3-11 1-32 1-11 2-70 19-32 8-23 4-36 5-40 4-105 5h-22l-5-2 1-5 7-6 8-5 4 1 3 1 25-11-13 4-12 4-3-1-24-39-10-16-11-18-12-19-3-5v-3l24-6 6 1 22 13 19 11 27 16 16 9 13 8 14 7 3 1 12 1 4 1 19-7 64-20 47-14 105-31 13-3 10 14 10-2 99-29-24 6-70 19-13 3-9-11-6-8-8-2 2-4-1-4-8-12-5-7-9-1v-3l4-4-2-5h-2l-8-12-2-4 4-2-1-4-9-13h-5l-6-5v-2l-4-2-3-2-12-1 2-4 2-3v-2h-2v-2h-2v-2l-4-2-17-17-2-1v-2l-16-1 3-6-7-8-6-7 1-4-8-8-8-7-4-3v-2l-4-2-14-13-2-1v-2h-2v-2l-4-2-15-14-3-2v-2l-4-2-12-11-2-1v-2h-2v-2l-3-1 1-3z" fill="#0B0B0B"/>
<path transform="translate(537,57)" d="m0 0h39l32 3 20 3 25 5 25 7 29 10 27 12 20 10 17 10 14 9 14 10 13 10 10 8 12 11 8 7 18 18 9 11 9 10 2 5h2l12 17 11 16 12 21 6 11 11 23v2l-8-1-22-7-19-4-5-2-16-3h-24l-12 2-33 9-43 13-30 11-29 11-9 3-14-8-3-2 1-4 4-5 11-7 10-11 8-10 15-13 4-6 3-13 9-18v-9h-9l-10 5-12 7-3 1h-10l-2-2 1-5 13-7 18-12 11-7 12-14 16-7 4-5 5-20 3-10-1-5-6-8-8-5-1-4 7-3-8-5-11-6-16-8-18-8-21-8-22-7-32-8-27-4-21-2h-52l-3 3 2 5 9 7 5 15 10 1 5-1-3-3 2-4-4-8-1-7 3-3 3-1h15v12l5 7 3 7 41-1 1 3v11l-4 10-3 5-4 1-18 2-4 2h-14l-31-9-5 1-6 3-3 9-5 1-15-5-7-7-2-1v-2l-16-1-5-5-2-13-5-9v-2l-7 1h-8l-21-4h-11l-19 7-21 9-16 8-5 1v2l-11 6-15 9-16 11-16 12h-2v2h-2l2 7 2 2-1 10-4 8v8l2 11v9l14 16 2 7 2 10 7 9 12 12 8 4 31 5 9 3h14l5-1h11l11 6 10 9-1 4-1 7 4 4 2 1 12 1v12l5 5v2h2l9 11 12 15 2 9 2 2-1 11-6 5-1 2-2 17-2 2-39 12-137 42-23 7h-14l-26-15-9-5-17-10-16-9-14-8-17-10-10-6-3-6-3-3 1-9 6-26 7-23 9-24 11-25 13-25h2l1-5 12-19 8-12 13-17 2-3h2l2-4 9-11 7-7 1-2h2l2-4 9-9 8-7 10-9 14-11h2v-2l10-7 27-18 14-8 19-10 15-7 19-8 36-12 28-7 24-4 26-3z" fill="#17BEEE"/>
<path transform="translate(728,762)" d="m0 0h32l17 4 12 5 10 8 7 7 2 3v3h2l6 14v7l-13 3-15 3h-6l-6-11-6-7-11-6-7-2h-16l-15 4-9 6-7 7-5 9-4 13-1 7v22l3 15 4 10 6 9 9 8 11 5 5 1h19l12-3 14-7 4-3 1-21h-39v-30h75v70l-3 1v2l-16 10-17 7-15 4-13 2h-19l-19-3-16-6-11-7-12-11v-2h-2l-9-15-6-16-3-14-1-11v-10l1-13 5-19 8-16 8-11 7-7 10-7 12-6 14-4z" fill="#17BEEE"/>
<path transform="translate(888,809)" d="m0 0h18l17 4 10 5 9 7 7 7 7 11 5 14 1 5v26l-4 14-7 13-12 13-11 7-11 4-11 2h-16l-14-3-12-5-10-6-7-7-8-13-4-11-2-12v-20l4-16 7-13 2-3h2l2-4 4-4h2v-2l10-6 10-4z" fill="#17BEEE"/>
<path transform="translate(328,809)" d="m0 0h16l16 4 12 7 9 9 8 14 4 13 2 16v12l-1 1h-82l3 14 6 9 5 4 5 2h14l4-2h3l7-14 11 1 19 3 3 1-1 7-8 13-5 5h-2v2l-10 6-13 4-7 1h-18l-16-4-10-5-10-9-7-10-5-12-3-17v-17l3-16 5-13 7-10 8-8 10-6 11-4z" fill="#17BEEE"/>
<path transform="translate(519,809)" d="m0 0h18l15 2 12 5 6 4 8 9 5 11v3l-13 3-10 2h-9l-3-6v-2l-4-2-7-3h-19l-7 2-3 1-1 7 1 3 12 5 19 5 21 6 10 4 9 7 5 6 3 8v19l-3 8-7 9-9 8-12 5-16 3h-20l-16-3-10-4-11-8-8-10-5-12 3-3 27-4h4l6 12 8 5 3 1h19l10-4 3-6-1-8-9-3-28-7-21-7-9-6-6-8-4-10v-16l4-10 7-9 7-5 9-4 8-2z" fill="#17BEEE"/>
<path transform="translate(152,766)" d="m0 0h34l1 2v139l85 1 1 1v28l-1 1h-120l-1-1v-170z" fill="#17BEEE"/>
<path transform="translate(444,769)" d="m0 0 3 1v42h21l1 1v26h-22l1 68 2 4 9 1 10-2 1 2 2 19v5l-8 3-10 2h-14l-12-3-9-6-4-8-2-9-1-75-14-1-1-25 2-2h14v-25l14-8 15-9z" fill="#17BEEE"/>
<path transform="translate(264,533)" d="m0 0h13l-5 9-7 10-26 39-14 20-9 14-7 9-23 6h-3v-19l3-72 1-10 5-1z" fill="#0B0B0B"/>
<path transform="translate(892,837)" d="m0 0h12l9 4 8 7 5 11 2 10v11l-2 11-6 12-8 7-7 3h-14l-8-3-3-2v-2l-4-2-6-10-2-8v-22l3-10 5-8h2v-2h2v-2l8-4z" fill="#FEFEFE"/>
<path transform="translate(382,974)" d="m0 0 11 1 6 3 5 5 4 6 1 9-9 1h-26l-6-1 2 10 4 5 6 3h10l8-4 4-5 5 1-2 5-5 5-7 4h-15l-8-4-6-8-2-5v-13l5-10 8-6z" fill="#0B0B0B"/>
<path transform="translate(333,835)" d="m0 0h8l9 4 2 1v2h2l4 6 3 10v6h-49l1-9 3-8 7-8 5-3z" fill="#FEFEFE"/>
<path transform="translate(510,980)" d="m0 0h12l6 4 5 7 1 4v7l-4 9-7 5-3 1h-10l-8-5-4-6-1-3v-10l3-6 7-6z" fill="#FEFEFE"/>
<path transform="translate(252,980)" d="m0 0h12l6 4 4 5 2 5v9l-4 8-6 5-3 1h-10l-6-3-5-5-3-7v-7l3-7 4-5z" fill="#FEFEFE"/>
<path transform="translate(643,980)" d="m0 0h12l6 4 4 5 2 5v9l-4 8-6 5-3 1h-10l-8-4-5-8-1-10 4-9 6-5z" fill="#FEFEFE"/>
<path transform="translate(622,155)" d="m0 0 7 1 9 6 3 10 7 10v2h2l7 8 15 13 3 3 5 16v4l-9-1-7-8-8-4-7-7-2-6 1-14-11-2-5-5-9-15-3-4v-5z" fill="#17BEEE"/>
<path transform="translate(788,980)" d="m0 0h9l8 4 5 8 1 9-3 9-7 6-3 1h-11l-7-4-5-8v-13l4-6 6-5z" fill="#FEFEFE"/>
<path transform="translate(668,957)" d="m0 0h4v64h-5l-1-6-8 6-3 1h-14l-9-5-6-9-2-7 1-10 6-10 9-6 11-1 9 3 6 5 1-24zm-25 23-7 4-4 5-2 6 1 10 5 8 8 4h10l7-4 4-5 2-5v-9l-4-8-6-5-2-1z" fill="#0B0B0B"/>
<path transform="translate(512,974)" d="m0 0 10 1 7 4 4 3v-6l5-1 1 1v45h-6v-6l-9 6-2 1h-14l-8-4-6-7-3-8v-9l4-10 9-8zm-2 6-6 3-5 5-2 5v10l4 8 5 4 4 2h10l8-4 4-5 2-6v-7l-3-7-5-6-4-2z" fill="#0B0B0B"/>
<path transform="translate(254,974)" d="m0 0 10 1 8 4 3 3 2-7 4 1v45h-5l-1-2 1-4-4 1v2l-8 4h-14l-6-3-5-5-4-5-2-9 1-9 3-7h2l2-4 6-4zm-2 6-7 4-5 7-1 4v7l3 7 5 5 6 3h10l7-4 4-5 2-5v-9l-4-8-6-5-2-1z" fill="#0B0B0B"/>
<path transform="translate(789,974)" d="m0 0h7l9 3 6 5 5 9 1 9-2 8-6 9-7 4-2 1h-14l-10-5-6-9-1-3v-13l4-8 5-5 6-4zm-1 6-6 3-6 7-1 2v13l5 8 7 4h11l7-4 4-5 2-7-1-9-5-8-8-4z" fill="#0B0B0B"/>
<path transform="translate(584,974)" d="m0 0 9 1 8 7 2 7v32h-5l-1-1-1-32-3-5-3-2h-10l-6 4-3 4-1 3-1 29h-6v-45l5-1 1 1v6l10-7z" fill="#0B0B0B"/>
<path transform="translate(220,260)" d="m0 0 3 1 6 15v8l-4 3 1 8 6 20v3l-4-2-10-14-11-17 1-5z" fill="#FEFEFE"/>
<path transform="translate(146,470)" d="m0 0 4 1 8 13 10 16 4 6v2l-5-2-11-7-32-20v-2z" fill="#0B0B0B"/>
<path transform="translate(838,975)" d="m0 0 5 1 1 29 3 8 6 3h9l6-3 3-9 1-29 5 1v32l-3 8h-2v2l-7 4h-15l-9-6-3-7-1-6v-27z" fill="#0B0B0B"/>
<path transform="translate(302,975)" d="m0 0 6 1 11 24 3 7 3-4 12-27 6-1 1 2-15 32-6 12-3-3-12-26-7-16z" fill="#0B0B0B"/>
<path transform="translate(946,974)" d="m0 0 8 1 6 4v3l-3 2-5-3h-8l-2 3 1 6 5 4 10 6 3 5v8l-3 5-5 4h-11l-7-4-1-2 2-3 4 1 4 2h7l3-2 1-6-3-5-11-6-4-5-1-2v-8l5-6z" fill="#0B0B0B"/>
<path transform="translate(736,958)" d="m0 0h6v17h8l1 5h-9v41h-6v-41h-8v-5h8z" fill="#0B0B0B"/>
<path transform="translate(164,958)" d="m0 0h6v18l2-1h6l1 5h-9v41h-6v-41h-8l1-5h6z" fill="#0B0B0B"/>
<path transform="translate(710,124)" d="m0 0 4 2 9 9 4 2h9l7-1 1 1v7l-3 4-5 1h-9l-6-4-12-12-5-3 1-4z" fill="#17BEEE"/>
<path transform="translate(431,957)" d="m0 0 5 1v63h-6v-63z" fill="#0B0B0B"/>
<path transform="translate(379,980)" d="m0 0h13l8 6 3 7-1 1h-33l-1-2 5-8z" fill="#FEFEFE"/>
<path transform="translate(915,974)" d="m0 0 6 1v3l-1 2-8 1-4 5-2 6-1 29h-6v-45l5-1 1 1v5h2l2-4z" fill="#0B0B0B"/>
<path transform="translate(213,974)" d="m0 0 5 1 1 2-2 3-9 2-3 5-2 10-1 24h-5l-1-2 1-43 4-1 2 5 7-5z" fill="#0B0B0B"/>
<path transform="translate(507,76)" d="m0 0h14l4 5-1 3-4-1-2 5-2 7-4 1-1-1-1-12-5-6z" fill="#FEFEFE"/>
<path transform="translate(492,92)" d="m0 0h14l2 2-1 5-3 4-5-2-8-5z" fill="#FEFEFE"/>
</svg>
